<mxfile host="app.diagrams.net" modified="2024-05-25T07:27:11.951Z" agent="Mozilla/5.0 (Windows NT 10.0; Win64; x64) AppleWebKit/537.36 (KHTML, like Gecko) Chrome/125.0.0.0 Safari/537.36" etag="fJesvN7DF4QcqF51minz" version="24.4.8" type="github">
  <diagram name="Page-1" id="b5b7bab2-c9e2-2cf4-8b2a-24fd1a2a6d21">
    <mxGraphModel dx="1050" dy="569" grid="1" gridSize="10" guides="1" tooltips="1" connect="1" arrows="1" fold="1" page="1" pageScale="1" pageWidth="827" pageHeight="1169" background="none" math="0" shadow="0">
      <root>
        <mxCell id="0" />
        <mxCell id="1" parent="0" />
        <mxCell id="6e0c8c40b5770093-72" value="" style="shape=folder;fontStyle=1;spacingTop=10;tabWidth=194;tabHeight=22;tabPosition=left;html=1;rounded=0;shadow=0;comic=0;labelBackgroundColor=none;strokeWidth=1;fillColor=none;fontFamily=Verdana;fontSize=10;align=center;" parent="1" vertex="1">
          <mxGeometry x="270" y="89.5" width="960" height="580.5" as="geometry" />
        </mxCell>
        <mxCell id="6e0c8c40b5770093-64" style="edgeStyle=elbowEdgeStyle;rounded=0;html=1;entryX=0.559;entryY=0.251;entryPerimeter=0;dashed=1;labelBackgroundColor=none;startFill=0;endArrow=open;endFill=0;endSize=10;fontFamily=Verdana;fontSize=10;" parent="1" edge="1">
          <mxGeometry relative="1" as="geometry">
            <mxPoint x="710" y="594.5" as="sourcePoint" />
          </mxGeometry>
        </mxCell>
        <mxCell id="6e0c8c40b5770093-65" style="edgeStyle=none;rounded=0;html=1;dashed=1;labelBackgroundColor=none;startFill=0;endArrow=open;endFill=0;endSize=10;fontFamily=Verdana;fontSize=10;entryX=-0.003;entryY=0.411;entryPerimeter=0;" parent="1" edge="1">
          <mxGeometry relative="1" as="geometry">
            <mxPoint x="799.1639999999998" y="653.27" as="targetPoint" />
          </mxGeometry>
        </mxCell>
        <mxCell id="6e0c8c40b5770093-68" style="edgeStyle=elbowEdgeStyle;rounded=0;html=1;entryX=0.628;entryY=0.26;entryPerimeter=0;dashed=1;labelBackgroundColor=none;startFill=0;endArrow=open;endFill=0;endSize=10;fontFamily=Verdana;fontSize=10;" parent="1" edge="1">
          <mxGeometry relative="1" as="geometry">
            <mxPoint x="658.5714285714289" y="904.5" as="sourcePoint" />
          </mxGeometry>
        </mxCell>
        <mxCell id="6e0c8c40b5770093-69" style="edgeStyle=elbowEdgeStyle;rounded=0;html=1;entryX=0.643;entryY=0.246;entryPerimeter=0;dashed=1;labelBackgroundColor=none;startFill=0;endArrow=open;endFill=0;endSize=10;fontFamily=Verdana;fontSize=10;" parent="1" edge="1">
          <mxGeometry relative="1" as="geometry">
            <mxPoint x="827.1428571428573" y="904.5" as="sourcePoint" />
          </mxGeometry>
        </mxCell>
        <mxCell id="6e0c8c40b5770093-73" value="&amp;lt;&amp;lt;model&amp;gt;&amp;gt;" style="text;html=1;align=left;verticalAlign=top;spacingTop=-4;fontSize=10;fontFamily=Verdana" parent="1" vertex="1">
          <mxGeometry x="327.5" y="114.5" width="130" height="20" as="geometry" />
        </mxCell>
        <mxCell id="g37qj0hmPY6IW3vuhjT3-13" style="edgeStyle=orthogonalEdgeStyle;rounded=0;orthogonalLoop=1;jettySize=auto;html=1;exitX=0.5;exitY=1;exitDx=0;exitDy=0;exitPerimeter=0;dashed=1;" parent="1" source="g37qj0hmPY6IW3vuhjT3-1" target="g37qj0hmPY6IW3vuhjT3-6" edge="1">
          <mxGeometry relative="1" as="geometry" />
        </mxCell>
        <mxCell id="g37qj0hmPY6IW3vuhjT3-14" style="rounded=0;orthogonalLoop=1;jettySize=auto;html=1;exitX=0;exitY=0;exitDx=190;exitDy=100;exitPerimeter=0;endArrow=classicThin;endFill=1;dashed=1;" parent="1" source="g37qj0hmPY6IW3vuhjT3-1" target="g37qj0hmPY6IW3vuhjT3-7" edge="1">
          <mxGeometry relative="1" as="geometry" />
        </mxCell>
        <mxCell id="g37qj0hmPY6IW3vuhjT3-15" style="rounded=0;orthogonalLoop=1;jettySize=auto;html=1;exitX=0;exitY=0;exitDx=0;exitDy=100;exitPerimeter=0;dashed=1;" parent="1" source="g37qj0hmPY6IW3vuhjT3-1" target="g37qj0hmPY6IW3vuhjT3-2" edge="1">
          <mxGeometry relative="1" as="geometry" />
        </mxCell>
        <mxCell id="g37qj0hmPY6IW3vuhjT3-1" value="&lt;font style=&quot;font-size: 20px;&quot;&gt;API&lt;/font&gt;" style="shape=folder;fontStyle=1;spacingTop=10;tabWidth=40;tabHeight=14;tabPosition=left;html=1;whiteSpace=wrap;" parent="1" vertex="1">
          <mxGeometry x="690" y="140" width="200" height="100" as="geometry" />
        </mxCell>
        <mxCell id="g37qj0hmPY6IW3vuhjT3-17" style="edgeStyle=orthogonalEdgeStyle;rounded=0;orthogonalLoop=1;jettySize=auto;html=1;exitX=0.5;exitY=1;exitDx=0;exitDy=0;exitPerimeter=0;dashed=1;" parent="1" source="g37qj0hmPY6IW3vuhjT3-2" target="g37qj0hmPY6IW3vuhjT3-4" edge="1">
          <mxGeometry relative="1" as="geometry" />
        </mxCell>
        <mxCell id="g37qj0hmPY6IW3vuhjT3-2" value="&lt;font style=&quot;font-size: 20px;&quot;&gt;Search&lt;/font&gt;" style="shape=folder;fontStyle=1;spacingTop=10;tabWidth=40;tabHeight=14;tabPosition=left;html=1;whiteSpace=wrap;" parent="1" vertex="1">
          <mxGeometry x="420" y="330" width="200" height="100" as="geometry" />
        </mxCell>
        <mxCell id="g37qj0hmPY6IW3vuhjT3-3" value="&lt;font style=&quot;font-size: 20px;&quot;&gt;Crawler&lt;/font&gt;" style="shape=folder;fontStyle=1;spacingTop=10;tabWidth=40;tabHeight=14;tabPosition=left;html=1;whiteSpace=wrap;" parent="1" vertex="1">
          <mxGeometry x="420" y="540" width="200" height="100" as="geometry" />
        </mxCell>
        <mxCell id="g37qj0hmPY6IW3vuhjT3-4" value="&lt;font style=&quot;font-size: 20px;&quot;&gt;FileStore&lt;/font&gt;" style="shape=folder;fontStyle=1;spacingTop=10;tabWidth=40;tabHeight=14;tabPosition=left;html=1;whiteSpace=wrap;" parent="1" vertex="1">
          <mxGeometry x="770" y="540" width="200" height="100" as="geometry" />
        </mxCell>
        <mxCell id="g37qj0hmPY6IW3vuhjT3-6" value="&lt;font style=&quot;font-size: 20px;&quot;&gt;Trending&lt;/font&gt;" style="shape=folder;fontStyle=1;spacingTop=10;tabWidth=40;tabHeight=14;tabPosition=left;html=1;whiteSpace=wrap;" parent="1" vertex="1">
          <mxGeometry x="690" y="330" width="200" height="100" as="geometry" />
        </mxCell>
        <mxCell id="g37qj0hmPY6IW3vuhjT3-7" value="&lt;font style=&quot;font-size: 20px;&quot;&gt;FindingEntity&lt;/font&gt;" style="shape=folder;fontStyle=1;spacingTop=10;tabWidth=40;tabHeight=14;tabPosition=left;html=1;whiteSpace=wrap;" parent="1" vertex="1">
          <mxGeometry x="990" y="330" width="200" height="100" as="geometry" />
        </mxCell>
        <mxCell id="g37qj0hmPY6IW3vuhjT3-19" style="rounded=0;orthogonalLoop=1;jettySize=auto;html=1;exitX=0;exitY=0;exitDx=0;exitDy=57;exitPerimeter=0;entryX=0;entryY=0;entryDx=200;entryDy=57;entryPerimeter=0;endArrow=diamond;endFill=0;" parent="1" source="g37qj0hmPY6IW3vuhjT3-4" target="g37qj0hmPY6IW3vuhjT3-3" edge="1">
          <mxGeometry relative="1" as="geometry" />
        </mxCell>
      </root>
    </mxGraphModel>
  </diagram>
</mxfile>
